<?xml version="1.0" encoding="UTF-8"?>
<svg id="Layer_1" xmlns="http://www.w3.org/2000/svg" version="1.1" xmlns:xlink="http://www.w3.org/1999/xlink" viewBox="0 0 816 205.5">
  <!-- Generator: Adobe Illustrator 29.4.0, SVG Export Plug-In . SVG Version: 2.1.0 Build 152)  -->
  <defs>
    <style>
      .st0 {
        fill: #060a1d;
      }

      .st1 {
        fill: url(#linear-gradient);
      }
    </style>
    <linearGradient id="linear-gradient" x1="27.96" y1="102.75" x2="788.04" y2="102.75" gradientUnits="userSpaceOnUse">
      <stop offset="0" stop-color="#fefefe"/>
      <stop offset=".27" stop-color="#fefefe"/>
      <stop offset=".42" stop-color="#e2dafe"/>
      <stop offset=".82" stop-color="#a184fe"/>
      <stop offset="1" stop-color="#8762ff"/>
    </linearGradient>
  </defs>
  <rect class="st0" width="816" height="205.5"/>
  <path class="st1" d="M44.8,105.16c1.51,8.92,2.1,16.66,9.35,22.92,12.26,10.58,37.55,8.81,44.99-6.72,4.24-8.86,3.89-28.33,4.15-38.6.52-21.11-.45-42.3-.03-63.41h18v92.63c-5.54,54.65-96.74,49.04-93.19-3.83.04-.65.04-2.66.13-3.08M201.24,58.49v51.15c0,8.22-2.08,14.52-6.25,18.91-4.17,4.39-9.8,6.58-16.91,6.58s-12.72-2.19-16.83-6.58c-4.11-4.39-6.16-10.69-6.16-18.91v-51.15h-18.83v53.98c0,8.33,1.64,15.44,4.92,21.33,3.27,5.89,7.77,10.33,13.5,13.33,5.72,3,12.19,4.5,19.41,4.5,5.44,0,10.58-1.08,15.41-3.25,4.83-2.17,8.75-5.14,11.75-8.91v10.83h18.99V58.49h-18.99ZM257.22,70.58v-13.5h-18.99v135.46h18.99v-56.98c3.44,4.22,7.89,7.75,13.33,10.58,5.44,2.83,11.66,4.25,18.66,4.25,8,0,15.3-2.03,21.91-6.08,6.61-4.05,11.8-9.72,15.58-16.99,3.77-7.27,5.67-15.52,5.67-24.74s-1.89-17.38-5.67-24.49c-3.78-7.11-8.97-12.63-15.58-16.58-6.61-3.94-13.91-5.92-21.91-5.92-7,0-13.27,1.44-18.83,4.33-5.56,2.89-9.94,6.44-13.16,10.66ZM313.04,102.57c0,6.33-1.31,11.89-3.92,16.66-2.61,4.78-6.06,8.41-10.33,10.91-4.28,2.5-8.86,3.75-13.75,3.75s-9.3-1.22-13.58-3.67c-4.28-2.44-7.72-6.02-10.33-10.75-2.61-4.72-3.92-10.25-3.92-16.58s1.3-11.83,3.92-16.5c2.61-4.67,6.05-8.22,10.33-10.66,4.27-2.44,8.8-3.67,13.58-3.67s9.47,1.19,13.75,3.58c4.27,2.39,7.72,5.89,10.33,10.5,2.61,4.61,3.92,10.08,3.92,16.41ZM368.77,58.42v91.8h-18.99V58.42h18.99ZM436.64,74.16v-15.5h-22.33v-22.83h-19.16v22.83h-10.83v15.5h10.83v50.82c0,9,2.28,15.5,6.83,19.49,4.55,4,11.11,6,19.66,6h15v-15.83h-11.66c-3.89,0-6.64-.75-8.25-2.25-1.61-1.5-2.42-3.97-2.42-7.41v-50.82h22.33ZM537.63,100.57c0-8.89-1.89-16.74-5.67-23.58-3.78-6.83-9.05-12.13-15.83-15.91-6.78-3.77-14.5-5.67-23.16-5.67s-16.97,1.94-23.91,5.83c-6.94,3.89-12.33,9.41-16.16,16.58-3.83,7.16-5.75,15.47-5.75,24.91s1.97,17.74,5.91,24.91c3.94,7.17,9.39,12.72,16.33,16.66,6.94,3.94,14.8,5.91,23.58,5.91,10.77,0,19.8-2.69,27.07-8.08,7.27-5.39,12.3-12.3,15.08-20.74h-20.49c-4.22,8.55-11.44,12.83-21.66,12.83-7.11,0-13.11-2.22-17.99-6.67-4.89-4.44-7.61-10.33-8.16-17.66h70.14c.44-2.77.67-5.89.67-9.33ZM466.98,94.57c.89-7.11,3.67-12.75,8.33-16.91,4.67-4.17,10.27-6.25,16.83-6.25,7.22,0,13.27,2.11,18.16,6.33,4.89,4.22,7.39,9.83,7.5,16.83h-50.82ZM572.62,71.98v-13.33h-18.99v91.8h18.99v-48.32c0-9.33,1.92-15.88,5.75-19.66,3.83-3.77,9.47-5.67,16.91-5.67h4.83v-19.66c-6.33,0-11.8,1.31-16.41,3.92-4.61,2.61-8.3,6.25-11.08,10.91ZM769.05,22.51v128.29h18.99V22.51h-18.99ZM377.26,30.76c-4.07-1.31-8.09-1.91-11.39-4.85-3.85-3.43-4.63-7.82-6.02-12.56-.18-.48-.74-.54-.94-.04-1.35,4.42-2.05,8.68-5.47,12.07-3.36,3.33-7.58,4.03-11.93,5.36-.5.2-.44.76.04.94,4.76,1.39,9.13,2.19,12.57,6.07,2.89,3.26,3.5,7.3,4.78,11.33.25.5.73.48.94-.04,1.54-3.93,1.53-7.3,4.38-10.83,3.76-4.65,7.68-4.61,12.78-6.47.11-.04.39-.13.45-.19.2-.21.11-.7-.19-.79ZM757.04,150.48h-16.89l-4.23-10.01-7.4-17.48-.11-.27c-.5-1.29-.8-2.08-.8-2.08h-.08l-55.69.23-12.61,29.63h-17.62l52.35-124.27c7.82-9.17,12.08.68,15.28,7.52,1.66,3.56,3.34,7.94,5.01,12.89l42.79,103.84ZM721.96,106.25l-22.23-54.73c-.54.54-22,54.73-22,54.73h44.23ZM727.61,120.64h-.08l.88,2.08c-.5-1.29-.8-2.08-.8-2.08Z"/>
</svg>