<?xml version="1.0" encoding="UTF-8"?>
<svg id="Layer_1" xmlns="http://www.w3.org/2000/svg" version="1.1" viewBox="0 0 816 205.5">
  <!-- Generator: Adobe Illustrator 29.4.0, SVG Export Plug-In . SVG Version: 2.1.0 Build 152)  -->
  <defs>
    <style>
      .st0 {
        fill: #fff;
      }
    </style>
  </defs>
  <rect width="816" height="205.5"/>
  <g>
    <path class="st0" d="M44.8,105.16c1.51,8.92,2.1,16.66,9.35,22.92,12.26,10.58,37.55,8.81,44.99-6.72,4.24-8.86,3.89-28.33,4.15-38.6.52-21.11-.45-42.3-.03-63.41h18v92.63c-5.54,54.65-96.74,49.04-93.19-3.83.04-.65.04-2.66.13-3.08"/>
    <path class="st0" d="M220.24,58.49v91.8h-18.99v-10.83c-3,3.78-6.91,6.75-11.75,8.91-4.83,2.17-9.97,3.25-15.41,3.25-7.22,0-13.69-1.5-19.41-4.5-5.72-3-10.22-7.44-13.5-13.33-3.28-5.89-4.92-13-4.92-21.33v-53.98h18.83v51.15c0,8.22,2.05,14.52,6.16,18.91,4.11,4.39,9.72,6.58,16.83,6.58s12.75-2.19,16.91-6.58c4.17-4.39,6.25-10.69,6.25-18.91v-51.15h18.99Z"/>
    <path class="st0" d="M270.39,59.92c5.55-2.89,11.83-4.33,18.83-4.33,8,0,15.3,1.97,21.91,5.92,6.61,3.94,11.8,9.47,15.58,16.58,3.77,7.11,5.67,15.27,5.67,24.49s-1.89,17.47-5.67,24.74c-3.78,7.28-8.97,12.94-15.58,16.99-6.61,4.06-13.91,6.08-21.91,6.08-7,0-13.22-1.42-18.66-4.25-5.44-2.83-9.89-6.36-13.33-10.58v56.98h-18.99V57.09h18.99v13.5c3.22-4.22,7.61-7.77,13.16-10.66ZM309.12,86.16c-2.61-4.61-6.06-8.11-10.33-10.5-4.28-2.39-8.86-3.58-13.75-3.58s-9.3,1.22-13.58,3.67c-4.28,2.44-7.72,6-10.33,10.66-2.61,4.67-3.92,10.16-3.92,16.5s1.3,11.86,3.92,16.58c2.61,4.72,6.05,8.3,10.33,10.75,4.27,2.44,8.8,3.67,13.58,3.67s9.47-1.25,13.75-3.75c4.27-2.5,7.72-6.14,10.33-10.91,2.61-4.77,3.92-10.33,3.92-16.66s-1.31-11.8-3.92-16.41Z"/>
    <path class="st0" d="M349.78,58.42v91.8h18.99V58.42h-18.99Z"/>
    <path class="st0" d="M414.31,74.16v50.82c0,3.44.8,5.92,2.42,7.41,1.61,1.5,4.36,2.25,8.25,2.25h11.66v15.83h-15c-8.55,0-15.11-2-19.66-6-4.56-4-6.83-10.5-6.83-19.49v-50.82h-10.83v-15.5h10.83v-22.83h19.16v22.83h22.33v15.5h-22.33Z"/>
    <path class="st0" d="M536.96,109.9h-70.14c.55,7.33,3.27,13.22,8.16,17.66,4.89,4.44,10.88,6.67,17.99,6.67,10.22,0,17.44-4.28,21.66-12.83h20.49c-2.78,8.44-7.8,15.36-15.08,20.74-7.28,5.39-16.3,8.08-27.07,8.08-8.78,0-16.64-1.97-23.58-5.91-6.94-3.94-12.39-9.5-16.33-16.66-3.94-7.16-5.91-15.47-5.91-24.91s1.92-17.74,5.75-24.91c3.83-7.16,9.22-12.69,16.16-16.58,6.94-3.89,14.91-5.83,23.91-5.83s16.38,1.89,23.16,5.67c6.77,3.78,12.05,9.08,15.83,15.91,3.77,6.83,5.67,14.69,5.67,23.58,0,3.44-.22,6.56-.67,9.33ZM517.8,94.57c-.11-7-2.61-12.61-7.5-16.83-4.89-4.22-10.94-6.33-18.16-6.33-6.56,0-12.16,2.08-16.83,6.25-4.67,4.17-7.44,9.8-8.33,16.91h50.82Z"/>
    <path class="st0" d="M583.69,61.07c4.61-2.61,10.08-3.92,16.41-3.92v19.66h-4.83c-7.44,0-13.08,1.89-16.91,5.67-3.83,3.78-5.75,10.33-5.75,19.66v48.32h-18.99V58.65h18.99v13.33c2.77-4.67,6.47-8.3,11.08-10.91Z"/>
    <path class="st0" d="M788.04,22.51v128.29h-18.99V22.51h18.99Z"/>
    <path class="st0" d="M377.45,31.55c-.06.06-.34.15-.45.19-5.1,1.86-9.02,1.82-12.78,6.47-2.85,3.53-2.84,6.9-4.38,10.83-.2.52-.69.54-.94.04-1.28-4.02-1.89-8.07-4.78-11.33-3.44-3.88-7.81-4.68-12.57-6.07-.48-.18-.54-.74-.04-.94,4.35-1.33,8.57-2.04,11.93-5.36,3.41-3.38,4.11-7.64,5.47-12.07.2-.5.76-.44.94.04,1.39,4.74,2.17,9.13,6.02,12.56,3.3,2.94,7.33,3.54,11.39,4.85.3.09.38.58.19.79Z"/>
    <path class="st0" d="M714.25,46.64c-1.67-4.95-3.35-9.33-5.01-12.89-3.2-6.84-7.46-16.69-15.28-7.52l-52.35,124.27h17.62l12.61-29.63,55.69-.23h.08s.3.79.8,2.08l.11.27,7.4,17.48,4.23,10.01h16.89l-42.79-103.84ZM677.73,106.25s21.46-54.19,22-54.73l22.23,54.73h-44.23Z"/>
    <path class="st0" d="M728.41,122.72l-.88-2.08h.08s.3.79.8,2.08Z"/>
  </g>
</svg>